<svg width="12" height="12" viewBox="0 0 10 16" fill="none" xmlns="http://www.w3.org/2000/svg">
<path d="M8.15625 0.5625H5.90625C5.44043 0.5625 5.0625 0.94043 5.0625 1.40625V3.65625C5.0625 4.12207 5.44043 4.5 5.90625 4.5H7.3125V5.625C7.3125 6.24551 6.80801 6.75 6.1875 6.75H6.04688C5.81309 6.75 5.625 6.93809 5.625 7.17188V8.01562C5.625 8.24941 5.81309 8.4375 6.04688 8.4375H6.1875C7.74141 8.4375 9 7.17891 9 5.625V1.40625C9 0.94043 8.62207 0.5625 8.15625 0.5625ZM3.09375 0.5625H0.84375C0.37793 0.5625 0 0.94043 0 1.40625V3.65625C0 4.12207 0.37793 4.5 0.84375 4.5H2.25V5.625C2.25 6.24551 1.74551 6.75 1.125 6.75H0.984375C0.750586 6.75 0.5625 6.93809 0.5625 7.17188V8.01562C0.5625 8.24941 0.750586 8.4375 0.984375 8.4375H1.125C2.67891 8.4375 3.9375 7.17891 3.9375 5.625V1.40625C3.9375 0.94043 3.55957 0.5625 3.09375 0.5625Z" fill="white"/>
</svg>
