<svg width="12" height="12" viewBox="0 0 10 10" fill="none" xmlns="http://www.w3.org/2000/svg">
<path d="M8.15625 4.5H6.75V3.21429C6.75 2.50513 7.25449 1.92857 7.875 1.92857H8.01562C8.24941 1.92857 8.4375 1.71362 8.4375 1.44643V0.482143C8.4375 0.214955 8.24941 0 8.01562 0H7.875C6.32109 0 5.0625 1.43839 5.0625 3.21429V8.03571C5.0625 8.56808 5.44043 9 5.90625 9H8.15625C8.62207 9 9 8.56808 9 8.03571V5.46429C9 4.93192 8.62207 4.5 8.15625 4.5ZM3.09375 4.5H1.6875V3.21429C1.6875 2.50513 2.19199 1.92857 2.8125 1.92857H2.95312C3.18691 1.92857 3.375 1.71362 3.375 1.44643V0.482143C3.375 0.214955 3.18691 0 2.95312 0H2.8125C1.25859 0 0 1.43839 0 3.21429V8.03571C0 8.56808 0.37793 9 0.84375 9H3.09375C3.55957 9 3.9375 8.56808 3.9375 8.03571V5.46429C3.9375 4.93192 3.55957 4.5 3.09375 4.5Z" fill="white"/>
</svg>
